<svg width="24" height="24" viewBox="0 0 24 24" fill="none" xmlns="http://www.w3.org/2000/svg">
<path fill-rule="evenodd" clip-rule="evenodd" d="M22.5 12C22.5 12.1989 22.421 12.3897 22.2803 12.5303C22.1397 12.671 21.9489 12.75 21.75 12.75L4.0605 12.75L8.781 17.469C8.92183 17.6098 9.00095 17.8008 9.00095 18C9.00095 18.1992 8.92183 18.3902 8.781 18.531C8.64017 18.6718 8.44916 18.7509 8.25 18.7509C8.05084 18.7509 7.85983 18.6718 7.719 18.531L1.719 12.531C1.64915 12.4613 1.59374 12.3786 1.55593 12.2874C1.51812 12.1963 1.49866 12.0986 1.49866 12C1.49866 11.9013 1.51812 11.8037 1.55593 11.7125C1.59374 11.6214 1.64915 11.5387 1.719 11.469L7.719 5.469C7.85983 5.32817 8.05084 5.24905 8.25 5.24905C8.44916 5.24905 8.64017 5.32817 8.781 5.469C8.92183 5.60983 9.00095 5.80084 9.00095 6C9.00095 6.19916 8.92183 6.39017 8.781 6.531L4.0605 11.25L21.75 11.25C21.9489 11.25 22.1397 11.329 22.2803 11.4697C22.421 11.6103 22.5 11.8011 22.5 12Z" fill="#C9C5C2"/>
</svg>
